<?xml version="1.0" encoding="UTF-8" standalone="no"?>
<!DOCTYPE svg PUBLIC "-//W3C//DTD SVG 1.1//EN" "http://www.w3.org/Graphics/SVG/1.1/DTD/svg11.dtd">
<svg xmlns="http://www.w3.org/2000/svg" xmlns:xlink="http://www.w3.org/1999/xlink" version="1.1" width="326.524pt" height="173.068pt" viewBox="0 0 326.524 173.068">
<g enable-background="new">
<path transform="matrix(2.18317,0,0,-2.18317,73.17986,36.661348)" d="M 10.58037 0 C 10.58037 5.84343 5.84343 10.58037 0 10.58037 C -5.84343 10.58037 -10.58037 5.84343 -10.58037 0 C -10.58037 -5.84343 -5.84343 -10.58037 0 -10.58037 C 5.84343 -10.58037 10.58037 -5.84343 10.58037 0 Z M 0 0 " fill="#e0e0e7"/>
<path transform="matrix(2.18317,0,0,-2.18317,73.17986,36.661348)" stroke-width="1.99252" stroke-linecap="butt" stroke-miterlimit="10" stroke-linejoin="miter" fill="none" stroke="#000000" d="M 10.58037 0 C 10.58037 5.84343 5.84343 10.58037 0 10.58037 C -5.84343 10.58037 -10.58037 5.84343 -10.58037 0 C -10.58037 -5.84343 -5.84343 -10.58037 0 -10.58037 C 5.84343 -10.58037 10.58037 -5.84343 10.58037 0 Z M 0 0 "/>
<text xml:space="preserve" transform="matrix(.65495106 0 -0 .65495106 38.5371 83.81236)" font-size="39.8506" font-family="NimbusRomNo9L"><tspan y="-58.405" x="25.217 60.644186">M1</tspan></text>
<path transform="matrix(2.18317,0,0,-2.18317,73.17986,36.661348)" d="M 95.62263 0 C 95.62263 5.84343 90.88571 10.58037 85.04227 10.58037 C 79.19882 10.58037 74.46188 5.84343 74.46188 0 C 74.46188 -5.84343 79.19882 -10.58037 85.04227 -10.58037 C 90.88571 -10.58037 95.62263 -5.84343 95.62263 0 Z M 85.04227 0 " fill="#e0e0e7"/>
<path transform="matrix(2.18317,0,0,-2.18317,73.17986,36.661348)" stroke-width="1.99252" stroke-linecap="butt" stroke-miterlimit="10" stroke-linejoin="miter" fill="none" stroke="#000000" d="M 95.62263 0 C 95.62263 5.84343 90.88571 10.58037 85.04227 10.58037 C 79.19882 10.58037 74.46188 5.84343 74.46188 0 C 74.46188 -5.84343 79.19882 -10.58037 85.04227 -10.58037 C 90.88571 -10.58037 95.62263 -5.84343 95.62263 0 Z M 85.04227 0 "/>
<text xml:space="preserve" transform="matrix(.65495106 0 -0 .65495106 168.4999 83.81236)" font-size="39.8506" font-family="NimbusRomNo9L"><tspan y="-58.405" x="110.259 145.68619">M2</tspan></text>
<path transform="matrix(2.18317,0,0,-2.18317,73.17986,36.661348)" d="M 52.9826 -51.02478 C 52.9826 -45.24725 48.29912 -40.56377 42.52159 -40.56377 C 36.74406 -40.56377 32.06058 -45.24725 32.06058 -51.02478 C 32.06058 -56.8023 36.74406 -61.4858 42.52159 -61.4858 C 48.29912 -61.4858 52.9826 -56.8023 52.9826 -51.02478 Z M 42.52159 -51.02478 " fill="#e0e0e7"/>
<path transform="matrix(2.18317,0,0,-2.18317,73.17986,36.661348)" stroke-width="1.99252" stroke-linecap="butt" stroke-miterlimit="10" stroke-linejoin="miter" fill="none" stroke="#000000" d="M 52.9826 -51.02478 C 52.9826 -45.24725 48.29912 -40.56377 42.52159 -40.56377 C 36.74406 -40.56377 32.06058 -45.24725 32.06058 -51.02478 C 32.06058 -56.8023 36.74406 -61.4858 42.52159 -61.4858 C 48.29912 -61.4858 52.9826 -56.8023 52.9826 -51.02478 Z M 42.52159 -51.02478 "/>
<text xml:space="preserve" transform="matrix(.65495106 0 -0 .65495106 110.62625 161.66136)" font-size="39.8506" font-family="NimbusRomNo9L"><tspan y="-7.464" x="72.389">E</tspan></text>
<path transform="matrix(2.18317,0,0,-2.18317,73.17986,36.661348)" stroke-width="2.49069" stroke-linecap="butt" stroke-miterlimit="10" stroke-linejoin="miter" fill="none" stroke="#ff0000" d="M 11.6161 2.46898 C 34.96321 7.43166 50.08095 7.43182 67.4057 3.74918 "/>
<path transform="matrix(2.1354242,.45388107,.45388107,-2.1354242,220.33798,28.476227)" d="M 6.15698 0 C 3.59157 .51308 -1.02615 1.53925 -4.10464 3.8481 C -1.53925 1.02615 -1.53925 -1.02615 -4.10464 -3.8481 C -1.02615 -1.53925 3.59157 -.51308 6.15698 0 Z " fill="#ff0000"/>
<path transform="matrix(2.18317,0,0,-2.18317,73.17986,36.661348)" stroke-width="1.49435" stroke-linecap="butt" stroke-miterlimit="10" stroke-linejoin="miter" fill="none" stroke="#ff0000" d="M 73.42805 -2.46915 C 50.08095 -7.43182 34.96321 -7.43166 15.88425 -3.37616 "/>
<path transform="matrix(-2.1354242,-.45388107,-.45388107,2.1354242,107.85791,44.0321)" d="M 4.36357 0 C 2.54541 .36362 -.72725 1.09088 -2.90904 2.72723 C -1.09088 .72725 -1.09088 -.72725 -2.90904 -2.72723 C -.72725 -1.09088 2.54541 -.36362 4.36357 0 Z " fill="#ff0000"/>
<path transform="matrix(2.18317,0,0,-2.18317,73.17986,36.661348)" stroke-width="1.49435" stroke-linecap="butt" stroke-miterlimit="10" stroke-linejoin="miter" fill="none" stroke="#0000ff" d="M -10.28455 5.93768 C -27.79214 16.04543 -27.79214 -16.04541 -14.06345 -8.11938 "/>
<path transform="matrix(1.8906472,-1.0915414,-1.0915414,-1.8906472,42.47696,54.387338)" d="M 4.36357 0 C 2.54541 .36362 -.72725 1.09088 -2.90904 2.72723 C -1.09088 .72725 -1.09088 -.72725 -2.90904 -2.72723 C -.72725 -1.09088 2.54541 -.36362 4.36357 0 Z " fill="#0000ff"/>
<path transform="matrix(2.18317,0,0,-2.18317,73.17986,36.661348)" stroke-width="1.49435" stroke-linecap="butt" stroke-miterlimit="10" stroke-linejoin="miter" fill="none" stroke="#0000ff" d="M 95.3289 -5.93718 C 112.83635 -16.04541 112.83635 16.04543 99.10799 8.11916 "/>
<path transform="matrix(-1.8906472,1.091585,1.091585,1.8906472,289.54945,18.93584)" d="M 4.36357 0 C 2.54541 .36362 -.72725 1.09088 -2.90904 2.72723 C -1.09088 .72725 -1.09088 -.72725 -2.90904 -2.72723 C -.72725 -1.09088 2.54541 -.36362 4.36357 0 Z " fill="#0000ff"/>
<path transform="matrix(2.18317,0,0,-2.18317,73.17986,36.661348)" stroke-width="1.79321" stroke-linecap="butt" stroke-dasharray="2.98883,2.98883" stroke-miterlimit="10" stroke-linejoin="miter" fill="none" stroke="#0000ff" d="M 35.63445 -42.76025 L 10.1025 -12.12256 "/>
<path transform="matrix(-1.3975999,-1.6770457,-1.6770457,1.3975999,95.23536,63.126955)" d="M 4.90154 0 C 2.85922 .40845 -.81691 1.22537 -3.26768 3.06345 C -1.22537 .81691 -1.22537 -.81691 -3.26768 -3.06345 C -.81691 -1.22537 2.85922 -.40845 4.90154 0 Z " fill="#0000ff"/>
<path transform="matrix(2.18317,0,0,-2.18317,73.17986,36.661348)" stroke-width="2.09224" stroke-linecap="butt" stroke-dasharray="2.98883,2.98883" stroke-miterlimit="10" stroke-linejoin="miter" fill="none" stroke="#ff0000" d="M 49.411 -42.76025 L 74.59749 -12.53625 "/>
<path transform="matrix(1.3975563,-1.6770895,-1.6770895,-1.3975563,236.03888,64.03016)" d="M 5.43977 0 C 3.17319 .4533 -.90662 1.35992 -3.62651 3.39986 C -1.35992 .90662 -1.35992 -.90662 -3.62651 -3.39986 C -.90662 -1.35992 3.17319 -.4533 5.43977 0 Z " fill="#ff0000"/>
</g>
</svg>
